<svg width="512" height="512" viewBox="0 0 512 512" fill="none" xmlns="http://www.w3.org/2000/svg">
<rect width="512" height="512" rx="25" fill="white"/>
<path d="M139.583 144.544V140.96H164.415V144.544L157.375 145.44C156.009 145.611 155.199 145.995 154.943 146.592C154.687 147.104 154.559 148.811 154.559 151.712V228H147.519L100.543 152.096V217.248C100.543 220.149 100.671 221.899 100.927 222.496C101.183 223.008 101.993 223.349 103.359 223.52L110.399 224.416V228H85.5665V224.416L92.6065 223.52C93.9718 223.349 94.7825 223.008 95.0385 222.496C95.2945 221.899 95.4225 220.149 95.4225 217.248V151.712C95.4225 148.811 95.2945 147.104 95.0385 146.592C94.7825 145.995 93.9718 145.611 92.6065 145.44L85.5665 144.544V140.96H111.295L149.439 202.272V151.712C149.439 148.811 149.311 147.104 149.055 146.592C148.799 145.995 147.988 145.611 146.623 145.44L139.583 144.544ZM226.946 144.544V140.96H251.778V144.544L244.738 145.44C243.372 145.611 242.562 145.995 242.306 146.592C242.05 147.104 241.922 148.811 241.922 151.712V198.432C241.922 208.672 239.746 216.395 235.394 221.6C231.127 226.72 224.556 229.28 215.682 229.28C205.356 229.28 197.036 226.464 190.722 220.832C184.407 215.2 181.25 207.093 181.25 196.512V151.712C181.25 148.811 181.122 147.104 180.866 146.592C180.61 145.995 179.799 145.611 178.434 145.44L171.394 144.544V140.96H206.466V144.544L199.426 145.44C198.06 145.611 197.25 145.995 196.994 146.592C196.738 147.104 196.61 148.811 196.61 151.712V197.408C196.61 206.965 198.359 213.877 201.858 218.144C205.356 222.411 210.348 224.544 216.834 224.544C223.148 224.544 228.055 222.539 231.554 218.528C235.052 214.432 236.802 207.819 236.802 198.688V151.712C236.802 148.811 236.674 147.104 236.418 146.592C236.162 145.995 235.351 145.611 233.986 145.44L226.946 144.544ZM256.974 140.96H327.374V162.976H323.79L319.694 148.768C319.438 147.659 319.139 146.891 318.798 146.464C318.542 145.952 317.987 145.653 317.134 145.568C316.28 145.483 314.83 145.44 312.782 145.44H299.854V217.248C299.854 220.149 299.982 221.899 300.238 222.496C300.494 223.008 301.304 223.349 302.67 223.52L309.71 224.416V228H274.638V224.416L281.678 223.52C283.043 223.349 283.854 223.008 284.11 222.496C284.366 221.899 284.494 220.149 284.494 217.248V145.44H271.566C269.603 145.44 268.152 145.483 267.214 145.568C266.36 145.653 265.806 145.952 265.55 146.464C265.294 146.891 264.995 147.659 264.654 148.768L260.558 162.976H256.974V140.96ZM346.499 224.416V228H321.794V224.416L328.835 223.52C329.773 223.349 330.456 223.179 330.883 223.008C331.309 222.752 331.693 222.197 332.035 221.344C332.376 220.491 332.845 219.125 333.443 217.248L357.891 140.96H368.899L393.475 217.248C394.072 219.125 394.541 220.491 394.882 221.344C395.224 222.197 395.608 222.752 396.035 223.008C396.547 223.179 397.229 223.349 398.083 223.52L405.123 224.416V228H369.795V224.416L376.835 223.52C378.2 223.349 378.925 223.008 379.011 222.496C379.181 221.899 378.797 220.149 377.859 217.248L372.995 201.376H343.427L338.435 217.248C337.581 220.149 337.197 221.899 337.283 222.496C337.368 223.008 338.093 223.349 339.458 223.52L346.499 224.416ZM344.963 196.896H371.587L358.403 154.4L344.963 196.896ZM117.708 297.544V293.96H142.54V297.544L135.5 298.44C134.134 298.611 133.324 298.995 133.068 299.592C132.812 300.104 132.684 301.811 132.684 304.712V381H125.644L78.6675 305.096V370.248C78.6675 373.149 78.7955 374.899 79.0515 375.496C79.3075 376.008 80.1182 376.349 81.4835 376.52L88.5235 377.416V381H63.6915V377.416L70.7315 376.52C72.0968 376.349 72.9075 376.008 73.1635 375.496C73.4195 374.899 73.5475 373.149 73.5475 370.248V304.712C73.5475 301.811 73.4195 300.104 73.1635 299.592C72.9075 298.995 72.0968 298.611 70.7315 298.44L63.6915 297.544V293.96H89.4195L127.564 355.272V304.712C127.564 301.811 127.436 300.104 127.18 299.592C126.924 298.995 126.113 298.611 124.748 298.44L117.708 297.544ZM223.887 333.384V341.448C223.887 354.589 220.943 364.701 215.055 371.784C209.252 378.781 200.633 382.28 189.199 382.28C177.764 382.28 169.103 378.781 163.215 371.784C157.412 364.701 154.51 354.589 154.51 341.448V333.384C154.51 320.243 157.412 310.173 163.215 303.176C169.103 296.179 177.764 292.68 189.199 292.68C200.633 292.68 209.252 296.179 215.055 303.176C220.943 310.173 223.887 320.243 223.887 333.384ZM207.503 326.984C207.503 319.475 206.863 313.587 205.583 309.32C204.303 304.968 202.297 301.853 199.567 299.976C196.921 298.099 193.465 297.16 189.199 297.16C185.017 297.16 181.561 298.099 178.831 299.976C176.1 301.853 174.095 304.968 172.815 309.32C171.535 313.587 170.895 319.475 170.895 326.984V347.848C170.895 355.272 171.535 361.16 172.815 365.512C174.095 369.864 176.1 373.021 178.831 374.984C181.561 376.861 185.017 377.8 189.199 377.8C193.465 377.8 196.921 376.861 199.567 374.984C202.297 373.021 204.303 369.864 205.583 365.512C206.863 361.16 207.503 355.272 207.503 347.848V326.984ZM233.849 293.96H304.249V315.976H300.665L296.569 301.768C296.313 300.659 296.014 299.891 295.673 299.464C295.417 298.952 294.862 298.653 294.009 298.568C293.155 298.483 291.705 298.44 289.657 298.44H276.729V370.248C276.729 373.149 276.857 374.899 277.113 375.496C277.369 376.008 278.179 376.349 279.545 376.52L286.585 377.416V381H251.513V377.416L258.553 376.52C259.918 376.349 260.729 376.008 260.985 375.496C261.241 374.899 261.369 373.149 261.369 370.248V298.44H248.441C246.478 298.44 245.027 298.483 244.089 298.568C243.235 298.653 242.681 298.952 242.425 299.464C242.169 299.891 241.87 300.659 241.529 301.768L237.433 315.976H233.849V293.96ZM371.093 358.984H374.677V381H311.317V377.416L318.357 376.52C319.722 376.349 320.533 376.008 320.789 375.496C321.045 374.899 321.173 373.149 321.173 370.248V304.712C321.173 301.811 321.045 300.104 320.789 299.592C320.533 298.995 319.722 298.611 318.357 298.44L311.317 297.544V293.96H373.396V315.976H369.812L365.717 301.768C365.461 300.744 365.162 300.019 364.821 299.592C364.565 299.08 364.01 298.781 363.157 298.696C362.303 298.525 360.853 298.44 358.805 298.44H336.533V334.792H351.125C353.173 334.792 354.623 334.749 355.477 334.664C356.33 334.493 356.885 334.195 357.141 333.768C357.482 333.256 357.781 332.488 358.037 331.464L360.853 321.096H364.437V352.968H360.853L358.037 342.6C357.781 341.576 357.482 340.851 357.141 340.424C356.885 339.912 356.33 339.613 355.477 339.528C354.623 339.357 353.173 339.272 351.125 339.272H336.533V376.52H360.085C362.133 376.52 363.583 376.477 364.437 376.392C365.29 376.221 365.845 375.923 366.101 375.496C366.442 374.984 366.741 374.216 366.997 373.192L371.093 358.984ZM418.138 377.8C423.258 377.8 427.482 376.605 430.81 374.216C434.223 371.741 435.93 367.901 435.93 362.696C435.93 358.856 434.778 355.656 432.474 353.096C430.255 350.536 426.244 348.403 420.442 346.696L408.538 343.112C402.564 341.32 397.956 338.248 394.714 333.896C391.556 329.459 389.978 323.955 389.978 317.384C389.978 313.032 390.959 308.979 392.922 305.224C394.97 301.469 398.042 298.44 402.138 296.136C406.319 293.832 411.567 292.68 417.882 292.68C424.794 292.68 430.383 293.96 434.65 296.52C438.916 298.995 441.903 302.237 443.61 306.248C445.316 310.259 445.743 314.568 444.89 319.176L430.17 321.864C431.535 313.928 430.938 307.827 428.378 303.56C425.903 299.293 421.85 297.16 416.218 297.16C411.866 297.16 408.367 298.44 405.722 301C403.162 303.56 401.882 307.229 401.882 312.008C401.882 315.933 402.991 319.389 405.21 322.376C407.514 325.363 411.268 327.667 416.474 329.288L428.378 332.872C434.863 334.749 439.727 337.608 442.97 341.448C446.212 345.203 447.834 350.451 447.834 357.192C447.834 361.971 446.724 366.28 444.506 370.12C442.372 373.875 439.087 376.861 434.65 379.08C430.298 381.213 424.836 382.28 418.266 382.28C413.487 382.28 408.964 381.597 404.698 380.232C400.431 378.781 396.847 376.435 393.946 373.192C391.13 369.949 389.338 365.555 388.57 360.008L397.146 356.936C397.572 362.397 398.767 366.664 400.73 369.736C402.778 372.723 405.295 374.813 408.282 376.008C411.354 377.203 414.639 377.8 418.138 377.8Z" fill="black"/>
</svg>
